<svg id="visual" viewBox="0 0 960 540" width="960" height="540" xmlns="http://www.w3.org/2000/svg" xmlns:xlink="http://www.w3.org/1999/xlink" version="1.1"><g stroke-width="1" stroke-linejoin="bevel"><path d="M475.3 255.5L479.3 231.4L459.7 248.4Z" fill="#1a1a1a" stroke="#1a1a1a"></path><path d="M563.7 186.3L482 215.5L479.3 231.4Z" fill="#0e0e0e" stroke="#0e0e0e"></path><path d="M479.3 231.4L482 215.5L459.7 248.4Z" fill="#222222" stroke="#222222"></path><path d="M405.3 190.3L423 266.5L459.7 248.4Z" fill="#1d1d1d" stroke="#1d1d1d"></path><path d="M459.7 248.4L423 266.5L475.3 255.5Z" fill="#181818" stroke="#181818"></path><path d="M482 215.5L418 183.4L459.7 248.4Z" fill="#121212" stroke="#121212"></path><path d="M362.3 254.5L404.7 275.5L423 266.5Z" fill="#181818" stroke="#181818"></path><path d="M458.7 354.5L546.3 308.5L475.3 255.5Z" fill="#222222" stroke="#222222"></path><path d="M476 175.3L418 183.4L482 215.5Z" fill="#1f1f1f" stroke="#1f1f1f"></path><path d="M418 183.4L405.3 190.3L459.7 248.4Z" fill="#181818" stroke="#181818"></path><path d="M530 146.2L482.7 156.3L476 175.3Z" fill="#1d1d1d" stroke="#1d1d1d"></path><path d="M476 175.3L482.7 156.3L418 183.4Z" fill="#222222" stroke="#222222"></path><path d="M458.7 354.5L475.3 255.5L423 266.5Z" fill="#0e0e0e" stroke="#0e0e0e"></path><path d="M475.3 255.5L546.3 308.5L479.3 231.4Z" fill="#181818" stroke="#181818"></path><path d="M482 215.5L530 146.2L476 175.3Z" fill="#222222" stroke="#222222"></path><path d="M546.3 308.5L563.7 186.3L479.3 231.4Z" fill="#0e0e0e" stroke="#0e0e0e"></path><path d="M405.3 190.3L362.3 254.5L423 266.5Z" fill="#1d1d1d" stroke="#1d1d1d"></path><path d="M563.7 186.3L530 146.2L482 215.5Z" fill="#1f1f1f" stroke="#1f1f1f"></path><path d="M434.3 382.6L458.7 354.5L404.7 275.5Z" fill="#000000" stroke="#000000"></path><path d="M404.7 275.5L458.7 354.5L423 266.5Z" fill="#1a1a1a" stroke="#1a1a1a"></path><path d="M595.3 361.7L567.7 311.5L546.3 308.5Z" fill="#050505" stroke="#050505"></path><path d="M546.3 308.5L605 216.5L563.7 186.3Z" fill="#222222" stroke="#222222"></path><path d="M482.7 156.3L405.7 141.2L418 183.4Z" fill="#1a1a1a" stroke="#1a1a1a"></path><path d="M418 183.4L405.7 141.2L405.3 190.3Z" fill="#0e0e0e" stroke="#0e0e0e"></path><path d="M405.3 190.3L306.7 175.4L362.3 254.5Z" fill="#121212" stroke="#121212"></path><path d="M478.3 94.3L405.7 141.2L482.7 156.3Z" fill="#1a1a1a" stroke="#1a1a1a"></path><path d="M458.7 354.5L483 368.7L546.3 308.5Z" fill="#0e0e0e" stroke="#0e0e0e"></path><path d="M405.7 141.2L389.3 142.4L405.3 190.3Z" fill="#1f1f1f" stroke="#1f1f1f"></path><path d="M434.3 382.6L467.7 375.6L458.7 354.5Z" fill="#000000" stroke="#000000"></path><path d="M458.7 354.5L467.7 375.6L483 368.7Z" fill="#1a1a1a" stroke="#1a1a1a"></path><path d="M605 216.5L587 172.3L563.7 186.3Z" fill="#0a0a0a" stroke="#0a0a0a"></path><path d="M563.7 186.3L584 140.2L530 146.2Z" fill="#0e0e0e" stroke="#0e0e0e"></path><path d="M567.7 311.5L605 216.5L546.3 308.5Z" fill="#1f1f1f" stroke="#1f1f1f"></path><path d="M591.3 110.2L492 99.1L530 146.2Z" fill="#0a0a0a" stroke="#0a0a0a"></path><path d="M530 146.2L492 99.1L482.7 156.3Z" fill="#1a1a1a" stroke="#1a1a1a"></path><path d="M405.7 141.2L393.7 100.1L389.3 142.4Z" fill="#181818" stroke="#181818"></path><path d="M339.3 350.7L434.3 382.6L404.7 275.5Z" fill="#222222" stroke="#222222"></path><path d="M492 99.1L478.3 94.3L482.7 156.3Z" fill="#0a0a0a" stroke="#0a0a0a"></path><path d="M628.7 165.4L584 140.2L587 172.3Z" fill="#222222" stroke="#222222"></path><path d="M587 172.3L584 140.2L563.7 186.3Z" fill="#151515" stroke="#151515"></path><path d="M434.3 382.6L469 394.6L467.7 375.6Z" fill="#1a1a1a" stroke="#1a1a1a"></path><path d="M467.7 375.6L469 394.6L483 368.7Z" fill="#1a1a1a" stroke="#1a1a1a"></path><path d="M551.3 405.6L595.3 361.7L546.3 308.5Z" fill="#151515" stroke="#151515"></path><path d="M426.3 80.2L393.7 100.1L405.7 141.2Z" fill="#1a1a1a" stroke="#1a1a1a"></path><path d="M389.3 142.4L344 133.4L405.3 190.3Z" fill="#151515" stroke="#151515"></path><path d="M393.7 100.1L344 133.4L389.3 142.4Z" fill="#121212" stroke="#121212"></path><path d="M478.3 94.3L426.3 80.2L405.7 141.2Z" fill="#0e0e0e" stroke="#0e0e0e"></path><path d="M605 216.5L630.7 183.5L587 172.3Z" fill="#0a0a0a" stroke="#0a0a0a"></path><path d="M657.3 198.5L630.7 183.5L605 216.5Z" fill="#151515" stroke="#151515"></path><path d="M326.3 356.5L339.3 350.7L305 325.5Z" fill="#222222" stroke="#222222"></path><path d="M362.3 254.5L339.3 350.7L404.7 275.5Z" fill="#0a0a0a" stroke="#0a0a0a"></path><path d="M434.3 382.6L408.7 439.7L469 394.6Z" fill="#181818" stroke="#181818"></path><path d="M551.3 405.6L546.3 308.5L483 368.7Z" fill="#050505" stroke="#050505"></path><path d="M567.7 311.5L645 286.5L605 216.5Z" fill="#181818" stroke="#181818"></path><path d="M630.7 183.5L628.7 165.4L587 172.3Z" fill="#000000" stroke="#000000"></path><path d="M594.7 417.7L604.7 360.6L595.3 361.7Z" fill="#1a1a1a" stroke="#1a1a1a"></path><path d="M595.3 361.7L618 346.6L567.7 311.5Z" fill="#222222" stroke="#222222"></path><path d="M344 133.4L306.7 175.4L405.3 190.3Z" fill="#0a0a0a" stroke="#0a0a0a"></path><path d="M597.7 114.2L591.3 110.2L584 140.2Z" fill="#181818" stroke="#181818"></path><path d="M584 140.2L591.3 110.2L530 146.2Z" fill="#181818" stroke="#181818"></path><path d="M492 99.1L505.3 46.1L478.3 94.3Z" fill="#0e0e0e" stroke="#0e0e0e"></path><path d="M478.3 94.3L505.3 46.1L426.3 80.2Z" fill="#121212" stroke="#121212"></path><path d="M618 346.6L645 286.5L567.7 311.5Z" fill="#121212" stroke="#121212"></path><path d="M630.7 183.5L657.3 198.5L628.7 165.4Z" fill="#151515" stroke="#151515"></path><path d="M645 286.5L651 240.4L605 216.5Z" fill="#000000" stroke="#000000"></path><path d="M604.7 360.6L618 346.6L595.3 361.7Z" fill="#181818" stroke="#181818"></path><path d="M639.3 129.3L597.7 114.2L584 140.2Z" fill="#181818" stroke="#181818"></path><path d="M469 394.6L551.3 405.6L483 368.7Z" fill="#222222" stroke="#222222"></path><path d="M305 325.5L339.3 350.7L362.3 254.5Z" fill="#1f1f1f" stroke="#1f1f1f"></path><path d="M339.3 350.7L326.7 385.7L434.3 382.6Z" fill="#0a0a0a" stroke="#0a0a0a"></path><path d="M285 284.5L305 325.5L362.3 254.5Z" fill="#151515" stroke="#151515"></path><path d="M344 133.4L320 131.2L306.7 175.4Z" fill="#050505" stroke="#050505"></path><path d="M293 100.1L320 131.2L344 133.4Z" fill="#1d1d1d" stroke="#1d1d1d"></path><path d="M293 100.1L344 133.4L358.3 28.1Z" fill="#1d1d1d" stroke="#1d1d1d"></path><path d="M618 346.6L654.3 289.5L645 286.5Z" fill="#000000" stroke="#000000"></path><path d="M645 286.5L654.3 289.5L651 240.4Z" fill="#151515" stroke="#151515"></path><path d="M701.3 255.4L657.3 198.5L651 240.4Z" fill="#181818" stroke="#181818"></path><path d="M651 240.4L657.3 198.5L605 216.5Z" fill="#181818" stroke="#181818"></path><path d="M628.7 165.4L639.3 129.3L584 140.2Z" fill="#000000" stroke="#000000"></path><path d="M306.7 175.4L285 284.5L362.3 254.5Z" fill="#222222" stroke="#222222"></path><path d="M617.7 76.1L505.3 46.1L591.3 110.2Z" fill="#181818" stroke="#181818"></path><path d="M591.3 110.2L505.3 46.1L492 99.1Z" fill="#1f1f1f" stroke="#1f1f1f"></path><path d="M248.7 233.5L274.3 281.5L285 284.5Z" fill="#0a0a0a" stroke="#0a0a0a"></path><path d="M285 284.5L266 344.6L305 325.5Z" fill="#0a0a0a" stroke="#0a0a0a"></path><path d="M289 359.7L326.7 385.7L326.3 356.5Z" fill="#000000" stroke="#000000"></path><path d="M248.7 233.5L285 284.5L306.7 175.4Z" fill="#1d1d1d" stroke="#1d1d1d"></path><path d="M690.3 147.2L639.3 129.3L628.7 165.4Z" fill="#000000" stroke="#000000"></path><path d="M597.7 114.2L617.7 76.1L591.3 110.2Z" fill="#181818" stroke="#181818"></path><path d="M289 359.7L326.3 356.5L305 325.5Z" fill="#121212" stroke="#121212"></path><path d="M326.3 356.5L326.7 385.7L339.3 350.7Z" fill="#121212" stroke="#121212"></path><path d="M469 394.6L537.3 473.9L551.3 405.6Z" fill="#151515" stroke="#151515"></path><path d="M326.7 385.7L408.7 439.7L434.3 382.6Z" fill="#0a0a0a" stroke="#0a0a0a"></path><path d="M594.7 448.8L594.7 417.7L551.3 405.6Z" fill="#222222" stroke="#222222"></path><path d="M551.3 405.6L594.7 417.7L595.3 361.7Z" fill="#050505" stroke="#050505"></path><path d="M604.7 360.6L684.3 404.7L618 346.6Z" fill="#0e0e0e" stroke="#0e0e0e"></path><path d="M722.7 266.5L701.3 255.4L727.7 304.5Z" fill="#1f1f1f" stroke="#1f1f1f"></path><path d="M266 344.6L289 359.7L305 325.5Z" fill="#0a0a0a" stroke="#0a0a0a"></path><path d="M268 113.3L263.3 178.4L306.7 175.4Z" fill="#222222" stroke="#222222"></path><path d="M639.3 129.3L617.7 76.1L597.7 114.2Z" fill="#121212" stroke="#121212"></path><path d="M263.3 178.4L248.7 233.5L306.7 175.4Z" fill="#000000" stroke="#000000"></path><path d="M274.3 281.5L266 344.6L285 284.5Z" fill="#1f1f1f" stroke="#1f1f1f"></path><path d="M358.3 28.1L344 133.4L393.7 100.1Z" fill="#121212" stroke="#121212"></path><path d="M320 131.2L268 113.3L306.7 175.4Z" fill="#050505" stroke="#050505"></path><path d="M358.3 28.1L393.7 100.1L426.3 80.2Z" fill="#222222" stroke="#222222"></path><path d="M229.7 268.5L266 344.6L274.3 281.5Z" fill="#050505" stroke="#050505"></path><path d="M303.7 436.9L326.3 432.8L326.7 385.7Z" fill="#0e0e0e" stroke="#0e0e0e"></path><path d="M701.3 255.4L654.3 289.5L727.7 304.5Z" fill="#121212" stroke="#121212"></path><path d="M654.3 289.5L701.3 255.4L651 240.4Z" fill="#1a1a1a" stroke="#1a1a1a"></path><path d="M657.3 198.5L690.3 147.2L628.7 165.4Z" fill="#222222" stroke="#222222"></path><path d="M639.3 129.3L697.3 86.1L617.7 76.1Z" fill="#0a0a0a" stroke="#0a0a0a"></path><path d="M293 100.1L277.7 108.2L320 131.2Z" fill="#000000" stroke="#000000"></path><path d="M186.3 191.3L229.7 268.5L248.7 233.5Z" fill="#151515" stroke="#151515"></path><path d="M736.7 193.3L690.3 147.2L657.3 198.5Z" fill="#181818" stroke="#181818"></path><path d="M278.7 405.6L326.7 385.7L289 359.7Z" fill="#151515" stroke="#151515"></path><path d="M326.7 385.7L326.3 432.8L408.7 439.7Z" fill="#050505" stroke="#050505"></path><path d="M573.3 467.8L594.7 448.8L551.3 405.6Z" fill="#121212" stroke="#121212"></path><path d="M594.7 417.7L684.3 404.7L604.7 360.6Z" fill="#222222" stroke="#222222"></path><path d="M427 487.8L469 394.6L408.7 439.7Z" fill="#1d1d1d" stroke="#1d1d1d"></path><path d="M427 487.8L537.3 473.9L469 394.6Z" fill="#000000" stroke="#000000"></path><path d="M230.7 0L268 113.3L277.7 108.2Z" fill="#000000" stroke="#000000"></path><path d="M277.7 108.2L268 113.3L320 131.2Z" fill="#050505" stroke="#050505"></path><path d="M540.7 0L475.3 0L505.3 46.1Z" fill="#222222" stroke="#222222"></path><path d="M505.3 46.1L467.7 0L426.3 80.2Z" fill="#121212" stroke="#121212"></path><path d="M293 100.1L230.7 0L277.7 108.2Z" fill="#121212" stroke="#121212"></path><path d="M475.3 0L467.7 0L505.3 46.1Z" fill="#151515" stroke="#151515"></path><path d="M414.3 0L358.3 28.1L426.3 80.2Z" fill="#181818" stroke="#181818"></path><path d="M228.7 193.3L248.7 233.5L263.3 178.4Z" fill="#000000" stroke="#000000"></path><path d="M248.7 233.5L229.7 268.5L274.3 281.5Z" fill="#000000" stroke="#000000"></path><path d="M602.7 483.9L610 446.7L594.7 448.8Z" fill="#0e0e0e" stroke="#0e0e0e"></path><path d="M594.7 448.8L610 446.7L594.7 417.7Z" fill="#1a1a1a" stroke="#1a1a1a"></path><path d="M537.3 473.9L573.3 467.8L551.3 405.6Z" fill="#0e0e0e" stroke="#0e0e0e"></path><path d="M467.7 0L423 0L426.3 80.2Z" fill="#050505" stroke="#050505"></path><path d="M268 113.3L228.7 193.3L263.3 178.4Z" fill="#151515" stroke="#151515"></path><path d="M423 0L414.3 0L426.3 80.2Z" fill="#1f1f1f" stroke="#1f1f1f"></path><path d="M370 481.8L427 487.8L408.7 439.7Z" fill="#0e0e0e" stroke="#0e0e0e"></path><path d="M727.7 304.5L654.3 289.5L723.3 353.6Z" fill="#181818" stroke="#181818"></path><path d="M701.3 255.4L736.7 193.3L657.3 198.5Z" fill="#1a1a1a" stroke="#1a1a1a"></path><path d="M617.7 76.1L540.7 0L505.3 46.1Z" fill="#222222" stroke="#222222"></path><path d="M682 15.1L540.7 0L617.7 76.1Z" fill="#0a0a0a" stroke="#0a0a0a"></path><path d="M232.7 435.8L278.7 405.6L266 344.6Z" fill="#222222" stroke="#222222"></path><path d="M266 344.6L278.7 405.6L289 359.7Z" fill="#0e0e0e" stroke="#0e0e0e"></path><path d="M278.7 405.6L303.7 436.9L326.7 385.7Z" fill="#000000" stroke="#000000"></path><path d="M366.7 480.8L370 481.8L408.7 439.7Z" fill="#0e0e0e" stroke="#0e0e0e"></path><path d="M366.7 480.8L408.7 439.7L326.3 432.8Z" fill="#121212" stroke="#121212"></path><path d="M322.3 519.9L366.7 480.8L326.3 432.8Z" fill="#222222" stroke="#222222"></path><path d="M723.3 353.6L654.3 289.5L618 346.6Z" fill="#222222" stroke="#222222"></path><path d="M691 417.8L684.3 404.7L674.3 461.8Z" fill="#1a1a1a" stroke="#1a1a1a"></path><path d="M610 446.7L684.3 404.7L594.7 417.7Z" fill="#222222" stroke="#222222"></path><path d="M742 203.4L701.3 255.4L722.7 266.5Z" fill="#1d1d1d" stroke="#1d1d1d"></path><path d="M742 203.4L736.7 193.3L701.3 255.4Z" fill="#181818" stroke="#181818"></path><path d="M766 265.5L742 203.4L722.7 266.5Z" fill="#121212" stroke="#121212"></path><path d="M761 128.2L697.3 86.1L690.3 147.2Z" fill="#1f1f1f" stroke="#1f1f1f"></path><path d="M690.3 147.2L697.3 86.1L639.3 129.3Z" fill="#000000" stroke="#000000"></path><path d="M760.7 179.4L690.3 147.2L736.7 193.3Z" fill="#121212" stroke="#121212"></path><path d="M583.3 540L602.7 483.9L573.3 467.8Z" fill="#000000" stroke="#000000"></path><path d="M573.3 467.8L602.7 483.9L594.7 448.8Z" fill="#151515" stroke="#151515"></path><path d="M583.3 540L573.3 467.8L537.3 473.9Z" fill="#000000" stroke="#000000"></path><path d="M684.3 404.7L723.3 353.6L618 346.6Z" fill="#151515" stroke="#151515"></path><path d="M727.7 304.5L747 291.6L722.7 266.5Z" fill="#121212" stroke="#121212"></path><path d="M443 538.9L486.7 518.9L427 487.8Z" fill="#222222" stroke="#222222"></path><path d="M427 487.8L486.7 518.9L537.3 473.9Z" fill="#222222" stroke="#222222"></path><path d="M443 538.9L427 487.8L402.7 540Z" fill="#1a1a1a" stroke="#1a1a1a"></path><path d="M769.7 335.7L747 291.6L727.7 304.5Z" fill="#1f1f1f" stroke="#1f1f1f"></path><path d="M137 254.5L197.3 300.5L229.7 268.5Z" fill="#050505" stroke="#050505"></path><path d="M229.7 268.5L197.3 300.5L266 344.6Z" fill="#222222" stroke="#222222"></path><path d="M684.3 404.7L714.7 393.6L723.3 353.6Z" fill="#181818" stroke="#181818"></path><path d="M674.3 461.8L684.3 404.7L610 446.7Z" fill="#121212" stroke="#121212"></path><path d="M691 417.8L703.7 402.8L684.3 404.7Z" fill="#181818" stroke="#181818"></path><path d="M693.7 443.9L714.7 393.6L703.7 402.8Z" fill="#181818" stroke="#181818"></path><path d="M703.7 402.8L714.7 393.6L684.3 404.7Z" fill="#050505" stroke="#050505"></path><path d="M791.3 324.6L766 265.5L747 291.6Z" fill="#181818" stroke="#181818"></path><path d="M170.3 105.1L186.3 191.3L228.7 193.3Z" fill="#181818" stroke="#181818"></path><path d="M228.7 193.3L186.3 191.3L248.7 233.5Z" fill="#1f1f1f" stroke="#1f1f1f"></path><path d="M769.7 335.7L727.7 304.5L723.3 353.6Z" fill="#0e0e0e" stroke="#0e0e0e"></path><path d="M747 291.6L766 265.5L722.7 266.5Z" fill="#121212" stroke="#121212"></path><path d="M742 203.4L760.7 179.4L736.7 193.3Z" fill="#1f1f1f" stroke="#1f1f1f"></path><path d="M414.3 0L303 0L358.3 28.1Z" fill="#151515" stroke="#151515"></path><path d="M358.3 28.1L303 0L293 100.1Z" fill="#0a0a0a" stroke="#0a0a0a"></path><path d="M268 113.3L170.3 105.1L228.7 193.3Z" fill="#000000" stroke="#000000"></path><path d="M798.3 173.3L760.7 179.4L742 203.4Z" fill="#000000" stroke="#000000"></path><path d="M402.7 540L370 481.8L378.3 540Z" fill="#000000" stroke="#000000"></path><path d="M402.7 540L427 487.8L370 481.8Z" fill="#1d1d1d" stroke="#1d1d1d"></path><path d="M486.7 518.9L583.3 540L537.3 473.9Z" fill="#0e0e0e" stroke="#0e0e0e"></path><path d="M443 538.9L486 540L486.7 518.9Z" fill="#000000" stroke="#000000"></path><path d="M641 490.9L610 446.7L602.7 483.9Z" fill="#0a0a0a" stroke="#0a0a0a"></path><path d="M641 490.9L674.3 461.8L610 446.7Z" fill="#050505" stroke="#050505"></path><path d="M691 417.8L693.7 443.9L703.7 402.8Z" fill="#000000" stroke="#000000"></path><path d="M674.3 461.8L693.7 443.9L691 417.8Z" fill="#121212" stroke="#121212"></path><path d="M278.7 405.6L263 457.9L303.7 436.9Z" fill="#0a0a0a" stroke="#0a0a0a"></path><path d="M303.7 436.9L322.3 519.9L326.3 432.8Z" fill="#181818" stroke="#181818"></path><path d="M232.7 435.8L263 457.9L278.7 405.6Z" fill="#222222" stroke="#222222"></path><path d="M587.7 540L641 490.9L602.7 483.9Z" fill="#151515" stroke="#151515"></path><path d="M378.3 540L370 481.8L366.7 480.8Z" fill="#1f1f1f" stroke="#1f1f1f"></path><path d="M443 538.9L402.7 540L486 540Z" fill="#181818" stroke="#181818"></path><path d="M206 429.7L232.7 435.8L266 344.6Z" fill="#1a1a1a" stroke="#1a1a1a"></path><path d="M689.3 0L682 15.1L701 0Z" fill="#050505" stroke="#050505"></path><path d="M697.3 86.1L682 15.1L617.7 76.1Z" fill="#151515" stroke="#151515"></path><path d="M798.3 173.3L761 128.2L760.7 179.4Z" fill="#151515" stroke="#151515"></path><path d="M760.7 179.4L761 128.2L690.3 147.2Z" fill="#181818" stroke="#181818"></path><path d="M335 540L378.3 540L366.7 480.8Z" fill="#050505" stroke="#050505"></path><path d="M794 353.5L769.7 335.7L723.3 353.6Z" fill="#0e0e0e" stroke="#0e0e0e"></path><path d="M835.3 221.5L798.3 173.3L742 203.4Z" fill="#000000" stroke="#000000"></path><path d="M791.3 324.6L769.7 335.7L794 353.5Z" fill="#1f1f1f" stroke="#1f1f1f"></path><path d="M242.3 496.8L322.3 519.9L263 457.9Z" fill="#181818" stroke="#181818"></path><path d="M263 457.9L322.3 519.9L303.7 436.9Z" fill="#050505" stroke="#050505"></path><path d="M486 540L583.3 540L486.7 518.9Z" fill="#0a0a0a" stroke="#0a0a0a"></path><path d="M583.3 540L587.7 540L602.7 483.9Z" fill="#222222" stroke="#222222"></path><path d="M641 490.9L716.3 489.9L674.3 461.8Z" fill="#000000" stroke="#000000"></path><path d="M197.3 300.5L206 429.7L266 344.6Z" fill="#1f1f1f" stroke="#1f1f1f"></path><path d="M240.3 495.9L242.3 496.8L263 457.9Z" fill="#121212" stroke="#121212"></path><path d="M156.7 408.7L206 429.7L197.3 300.5Z" fill="#1a1a1a" stroke="#1a1a1a"></path><path d="M733.7 47.1L682 15.1L697.3 86.1Z" fill="#121212" stroke="#121212"></path><path d="M682 15.1L689.3 0L540.7 0Z" fill="#222222" stroke="#222222"></path><path d="M746.7 62.2L733.7 47.1L697.3 86.1Z" fill="#1a1a1a" stroke="#1a1a1a"></path><path d="M255.3 540L335 540L322.3 519.9Z" fill="#1d1d1d" stroke="#1d1d1d"></path><path d="M322.3 519.9L335 540L366.7 480.8Z" fill="#050505" stroke="#050505"></path><path d="M137 254.5L153.3 323.6L197.3 300.5Z" fill="#1f1f1f" stroke="#1f1f1f"></path><path d="M761 128.2L746.7 62.2L697.3 86.1Z" fill="#151515" stroke="#151515"></path><path d="M794 353.5L723.3 353.6L714.7 393.6Z" fill="#1a1a1a" stroke="#1a1a1a"></path><path d="M769.7 335.7L791.3 324.6L747 291.6Z" fill="#0e0e0e" stroke="#0e0e0e"></path><path d="M186 28.1L170.3 105.1L268 113.3Z" fill="#121212" stroke="#121212"></path><path d="M186.3 191.3L137 254.5L229.7 268.5Z" fill="#0a0a0a" stroke="#0a0a0a"></path><path d="M702.7 0L701 0L682 15.1Z" fill="#222222" stroke="#222222"></path><path d="M702.7 0L682 15.1L733.7 47.1Z" fill="#000000" stroke="#000000"></path><path d="M835.3 221.5L742 203.4L766 265.5Z" fill="#121212" stroke="#121212"></path><path d="M761 128.2L804 127.3L746.7 62.2Z" fill="#000000" stroke="#000000"></path><path d="M793 0L702.7 0L733.7 47.1Z" fill="#1d1d1d" stroke="#1d1d1d"></path><path d="M126 219.4L137 254.5L186.3 191.3Z" fill="#050505" stroke="#050505"></path><path d="M170.3 105.1L151 144.2L186.3 191.3Z" fill="#0a0a0a" stroke="#0a0a0a"></path><path d="M170.3 105.1L162.3 112.2L151 144.2Z" fill="#121212" stroke="#121212"></path><path d="M804 445.7L714.7 393.6L693.7 443.9Z" fill="#181818" stroke="#181818"></path><path d="M804 445.7L794 353.5L714.7 393.6Z" fill="#1f1f1f" stroke="#1f1f1f"></path><path d="M791.3 324.6L835.3 221.5L766 265.5Z" fill="#1d1d1d" stroke="#1d1d1d"></path><path d="M303 0L230.7 0L293 100.1Z" fill="#1f1f1f" stroke="#1f1f1f"></path><path d="M170.3 105.1L159.7 89.1L162.3 112.2Z" fill="#121212" stroke="#121212"></path><path d="M240.3 495.9L263 457.9L213 483.8Z" fill="#1a1a1a" stroke="#1a1a1a"></path><path d="M213 483.8L263 457.9L232.7 435.8Z" fill="#121212" stroke="#121212"></path><path d="M242.3 496.8L255.3 540L322.3 519.9Z" fill="#0a0a0a" stroke="#0a0a0a"></path><path d="M151 144.2L126 219.4L186.3 191.3Z" fill="#1f1f1f" stroke="#1f1f1f"></path><path d="M105 392.6L156.7 408.7L153.3 323.6Z" fill="#1d1d1d" stroke="#1d1d1d"></path><path d="M186 28.1L159.7 89.1L170.3 105.1Z" fill="#121212" stroke="#121212"></path><path d="M162.3 112.2L117 131.3L151 144.2Z" fill="#181818" stroke="#181818"></path><path d="M96.7 237.4L112 252.5L126 219.4Z" fill="#222222" stroke="#222222"></path><path d="M678 540L716.3 489.9L641 490.9Z" fill="#151515" stroke="#151515"></path><path d="M674.3 461.8L716.3 489.9L693.7 443.9Z" fill="#222222" stroke="#222222"></path><path d="M798.3 173.3L804 127.3L761 128.2Z" fill="#0e0e0e" stroke="#0e0e0e"></path><path d="M746.7 62.2L793 0L733.7 47.1Z" fill="#000000" stroke="#000000"></path><path d="M831.3 174.4L804 127.3L798.3 173.3Z" fill="#0a0a0a" stroke="#0a0a0a"></path><path d="M230.7 0L186 28.1L268 113.3Z" fill="#1d1d1d" stroke="#1d1d1d"></path><path d="M157.3 432.7L213 483.8L206 429.7Z" fill="#1a1a1a" stroke="#1a1a1a"></path><path d="M206 429.7L213 483.8L232.7 435.8Z" fill="#050505" stroke="#050505"></path><path d="M247.7 540L255.3 540L242.3 496.8Z" fill="#0e0e0e" stroke="#0e0e0e"></path><path d="M153.3 323.6L156.7 408.7L197.3 300.5Z" fill="#0a0a0a" stroke="#0a0a0a"></path><path d="M103.7 259.5L153.3 323.6L137 254.5Z" fill="#1f1f1f" stroke="#1f1f1f"></path><path d="M215.3 0L186 28.1L230.7 0Z" fill="#121212" stroke="#121212"></path><path d="M103.7 259.5L112 252.5L96.7 237.4Z" fill="#151515" stroke="#151515"></path><path d="M126 219.4L112 252.5L137 254.5Z" fill="#0e0e0e" stroke="#0e0e0e"></path><path d="M587.7 540L678 540L641 490.9Z" fill="#000000" stroke="#000000"></path><path d="M882.7 326.6L835.3 221.5L791.3 324.6Z" fill="#222222" stroke="#222222"></path><path d="M702.7 0L207.7 -9.9L701 0Z" fill="#222222" stroke="#222222"></path><path d="M701 0L207.7 -9.9L689.3 0Z" fill="#050505" stroke="#050505"></path><path d="M689.3 0L207.7 -9.9L540.7 0Z" fill="#121212" stroke="#121212"></path><path d="M540.7 0L207.7 -9.9L475.3 0Z" fill="#000000" stroke="#000000"></path><path d="M475.3 0L207.7 -9.9L467.7 0Z" fill="#222222" stroke="#222222"></path><path d="M467.7 0L207.7 -9.9L423 0Z" fill="#222222" stroke="#222222"></path><path d="M423 0L207.7 -9.9L414.3 0Z" fill="#0a0a0a" stroke="#0a0a0a"></path><path d="M414.3 0L207.7 -9.9L303 0Z" fill="#1f1f1f" stroke="#1f1f1f"></path><path d="M303 0L207.7 -9.9L230.7 0Z" fill="#222222" stroke="#222222"></path><path d="M230.7 0L207.7 -9.9L215.3 0Z" fill="#000000" stroke="#000000"></path><path d="M215.3 0L207.7 -9.9L186 28.1Z" fill="#1d1d1d" stroke="#1d1d1d"></path><path d="M835.3 221.5L831.3 174.4L798.3 173.3Z" fill="#181818" stroke="#181818"></path><path d="M105 392.6L157.3 432.7L156.7 408.7Z" fill="#000000" stroke="#000000"></path><path d="M156.7 408.7L157.3 432.7L206 429.7Z" fill="#050505" stroke="#050505"></path><path d="M247.7 540L240.3 495.9L213 483.8Z" fill="#1a1a1a" stroke="#1a1a1a"></path><path d="M247.7 540L242.3 496.8L240.3 495.9Z" fill="#050505" stroke="#050505"></path><path d="M75.7 175.3L126 219.4L151 144.2Z" fill="#050505" stroke="#050505"></path><path d="M112 252.5L103.7 259.5L137 254.5Z" fill="#222222" stroke="#222222"></path><path d="M102.7 100.2L162.3 112.2L159.7 89.1Z" fill="#050505" stroke="#050505"></path><path d="M102.7 100.2L117 131.3L162.3 112.2Z" fill="#222222" stroke="#222222"></path><path d="M102.7 100.2L159.7 89.1L101 0Z" fill="#121212" stroke="#121212"></path><path d="M173 540L247.7 540L213 483.8Z" fill="#181818" stroke="#181818"></path><path d="M73.7 210.5L96.7 237.4L126 219.4Z" fill="#222222" stroke="#222222"></path><path d="M83.7 306.6L89.3 330.7L153.3 323.6Z" fill="#151515" stroke="#151515"></path><path d="M678 540L700.3 540L716.3 489.9Z" fill="#000000" stroke="#000000"></path><path d="M716.3 489.9L804 445.7L693.7 443.9Z" fill="#0a0a0a" stroke="#0a0a0a"></path><path d="M700.3 540L739 515.9L716.3 489.9Z" fill="#000000" stroke="#000000"></path><path d="M811.3 42.1L806 48.1L870.7 123.3Z" fill="#050505" stroke="#050505"></path><path d="M804 127.3L806 48.1L746.7 62.2Z" fill="#1a1a1a" stroke="#1a1a1a"></path><path d="M739 515.9L804 445.7L716.3 489.9Z" fill="#0a0a0a" stroke="#0a0a0a"></path><path d="M794 353.5L882.7 326.6L791.3 324.6Z" fill="#0e0e0e" stroke="#0e0e0e"></path><path d="M83.7 306.6L153.3 323.6L103.7 259.5Z" fill="#181818" stroke="#181818"></path><path d="M23.3 233.5L83.7 306.6L103.7 259.5Z" fill="#1f1f1f" stroke="#1f1f1f"></path><path d="M870.7 123.3L806 48.1L804 127.3Z" fill="#181818" stroke="#181818"></path><path d="M806 48.1L793 0L746.7 62.2Z" fill="#151515" stroke="#151515"></path><path d="M151.7 0L159.7 89.1L186 28.1Z" fill="#222222" stroke="#222222"></path><path d="M75.7 175.3L73.7 210.5L126 219.4Z" fill="#1d1d1d" stroke="#1d1d1d"></path><path d="M96.7 237.4L23.3 233.5L103.7 259.5Z" fill="#0e0e0e" stroke="#0e0e0e"></path><path d="M89.3 330.7L105 392.6L153.3 323.6Z" fill="#181818" stroke="#181818"></path><path d="M146 531.9L173 540L213 483.8Z" fill="#050505" stroke="#050505"></path><path d="M75.7 175.3L151 144.2L117 131.3Z" fill="#0e0e0e" stroke="#0e0e0e"></path><path d="M207.7 -9.9L151.7 0L186 28.1Z" fill="#151515" stroke="#151515"></path><path d="M59.3 169.4L75.7 175.3L117 131.3Z" fill="#0e0e0e" stroke="#0e0e0e"></path><path d="M811.3 42.1L793 0L806 48.1Z" fill="#1f1f1f" stroke="#1f1f1f"></path><path d="M702.7 0L793 0L207.7 -9.9Z" fill="#181818" stroke="#181818"></path><path d="M83.7 306.6L78.3 345.6L89.3 330.7Z" fill="#0e0e0e" stroke="#0e0e0e"></path><path d="M89.3 330.7L78.3 345.6L105 392.6Z" fill="#0a0a0a" stroke="#0a0a0a"></path><path d="M57.7 401.8L78.3 345.6L0 386.7Z" fill="#0a0a0a" stroke="#0a0a0a"></path><path d="M101 0L88.3 98.1L102.7 100.2Z" fill="#222222" stroke="#222222"></path><path d="M102.7 100.2L88.3 98.1L117 131.3Z" fill="#1a1a1a" stroke="#1a1a1a"></path><path d="M700.3 540L760 540L739 515.9Z" fill="#0e0e0e" stroke="#0e0e0e"></path><path d="M739 515.9L811.3 491.8L804 445.7Z" fill="#121212" stroke="#121212"></path><path d="M906.7 214.5L870.7 123.3L831.3 174.4Z" fill="#000000" stroke="#000000"></path><path d="M831.3 174.4L870.7 123.3L804 127.3Z" fill="#000000" stroke="#000000"></path><path d="M811.3 42.1L905.3 0L793 0Z" fill="#151515" stroke="#151515"></path><path d="M906.7 214.5L831.3 174.4L835.3 221.5Z" fill="#151515" stroke="#151515"></path><path d="M75.7 175.3L59.3 169.4L73.7 210.5Z" fill="#0a0a0a" stroke="#0a0a0a"></path><path d="M0 280.6L78.3 345.6L83.7 306.6Z" fill="#050505" stroke="#050505"></path><path d="M88.3 98.1L59.3 169.4L117 131.3Z" fill="#1a1a1a" stroke="#1a1a1a"></path><path d="M845.7 434.9L794 353.5L804 445.7Z" fill="#121212" stroke="#121212"></path><path d="M872.3 389.7L882.7 326.6L794 353.5Z" fill="#000000" stroke="#000000"></path><path d="M845 483.8L845.7 434.9L804 445.7Z" fill="#0e0e0e" stroke="#0e0e0e"></path><path d="M774.7 540L811.3 491.8L739 515.9Z" fill="#050505" stroke="#050505"></path><path d="M146 531.9L157.3 432.7L76.7 457.9Z" fill="#222222" stroke="#222222"></path><path d="M146 531.9L213 483.8L157.3 432.7Z" fill="#0e0e0e" stroke="#0e0e0e"></path><path d="M760 540L774.7 540L739 515.9Z" fill="#121212" stroke="#121212"></path><path d="M845.7 434.9L872.3 389.7L794 353.5Z" fill="#121212" stroke="#121212"></path><path d="M908.7 401.7L872.7 396.8L845.7 434.9Z" fill="#1d1d1d" stroke="#1d1d1d"></path><path d="M845.7 434.9L872.7 396.8L872.3 389.7Z" fill="#1d1d1d" stroke="#1d1d1d"></path><path d="M872.3 389.7L898.7 347.5L882.7 326.6Z" fill="#151515" stroke="#151515"></path><path d="M76.7 457.9L157.3 432.7L105 392.6Z" fill="#1a1a1a" stroke="#1a1a1a"></path><path d="M909.3 276.5L906.7 214.5L835.3 221.5Z" fill="#121212" stroke="#121212"></path><path d="M909.3 276.5L835.3 221.5L882.7 326.6Z" fill="#121212" stroke="#121212"></path><path d="M898.7 347.5L909.3 276.5L882.7 326.6Z" fill="#1a1a1a" stroke="#1a1a1a"></path><path d="M908.7 401.7L898.7 347.5L872.3 389.7Z" fill="#181818" stroke="#181818"></path><path d="M151.7 0L101 0L159.7 89.1Z" fill="#121212" stroke="#121212"></path><path d="M8.3 155.2L30.3 188.3L59.3 169.4Z" fill="#222222" stroke="#222222"></path><path d="M207.7 -9.9L101 0L151.7 0Z" fill="#1f1f1f" stroke="#1f1f1f"></path><path d="M78.3 345.6L57.7 401.8L105 392.6Z" fill="#1a1a1a" stroke="#1a1a1a"></path><path d="M23.3 233.5L96.7 237.4L73.7 210.5Z" fill="#050505" stroke="#050505"></path><path d="M811.3 491.8L845 483.8L804 445.7Z" fill="#181818" stroke="#181818"></path><path d="M872.7 396.8L908.7 401.7L872.3 389.7Z" fill="#050505" stroke="#050505"></path><path d="M850.3 545.9L845 483.8L811.3 491.8Z" fill="#0a0a0a" stroke="#0a0a0a"></path><path d="M8.3 155.2L59.3 169.4L0 104.3Z" fill="#181818" stroke="#181818"></path><path d="M59.3 169.4L30.3 188.3L73.7 210.5Z" fill="#222222" stroke="#222222"></path><path d="M30.3 188.3L23.3 233.5L73.7 210.5Z" fill="#050505" stroke="#050505"></path><path d="M57.7 401.8L76.7 457.9L105 392.6Z" fill="#222222" stroke="#222222"></path><path d="M76.7 457.9L131.7 540L146 531.9Z" fill="#1d1d1d" stroke="#1d1d1d"></path><path d="M146 531.9L131.7 540L173 540Z" fill="#1d1d1d" stroke="#1d1d1d"></path><path d="M936.7 171.4L870.7 123.3L906.7 214.5Z" fill="#121212" stroke="#121212"></path><path d="M936.7 171.4L902.3 101.2L870.7 123.3Z" fill="#1a1a1a" stroke="#1a1a1a"></path><path d="M870.7 123.3L897.7 82.1L811.3 42.1Z" fill="#050505" stroke="#050505"></path><path d="M902.3 101.2L897.7 82.1L870.7 123.3Z" fill="#181818" stroke="#181818"></path><path d="M845 483.8L908.7 401.7L845.7 434.9Z" fill="#000000" stroke="#000000"></path><path d="M960 330.7L960 275.5L909.3 276.5Z" fill="#1d1d1d" stroke="#1d1d1d"></path><path d="M960 205.5L936.7 171.4L906.7 214.5Z" fill="#181818" stroke="#181818"></path><path d="M902.3 101.2L960 71.2L897.7 82.1Z" fill="#121212" stroke="#121212"></path><path d="M960 275.5L906.7 214.5L909.3 276.5Z" fill="#151515" stroke="#151515"></path><path d="M0 104.3L59.3 169.4L88.3 98.1Z" fill="#1f1f1f" stroke="#1f1f1f"></path><path d="M0 227.4L0 251.5L23.3 233.5Z" fill="#000000" stroke="#000000"></path><path d="M0 227.4L23.3 233.5L30.3 188.3Z" fill="#000000" stroke="#000000"></path><path d="M23.3 233.5L0 280.6L83.7 306.6Z" fill="#181818" stroke="#181818"></path><path d="M57.7 401.8L0 442.8L76.7 457.9Z" fill="#050505" stroke="#050505"></path><path d="M0 251.5L0 255.5L23.3 233.5Z" fill="#151515" stroke="#151515"></path><path d="M8.3 155.2L0 227.4L30.3 188.3Z" fill="#151515" stroke="#151515"></path><path d="M207.7 -9.9L66.3 0L101 0Z" fill="#121212" stroke="#121212"></path><path d="M101 0L66.3 0L88.3 98.1Z" fill="#181818" stroke="#181818"></path><path d="M0 255.5L0 280.6L23.3 233.5Z" fill="#121212" stroke="#121212"></path><path d="M0 251.5L-8.7 258.5L0 255.5Z" fill="#1d1d1d" stroke="#1d1d1d"></path><path d="M0 255.5L-8.7 258.5L0 280.6Z" fill="#050505" stroke="#050505"></path><path d="M0 227.4L-8.7 258.5L0 251.5Z" fill="#050505" stroke="#050505"></path><path d="M0 104.3L-8.7 258.5L0 227.4Z" fill="#151515" stroke="#151515"></path><path d="M960 471.8L960 393.6L908.7 401.7Z" fill="#0a0a0a" stroke="#0a0a0a"></path><path d="M774.7 540L850.3 545.9L811.3 491.8Z" fill="#000000" stroke="#000000"></path><path d="M760 540L850.3 545.9L774.7 540Z" fill="#1a1a1a" stroke="#1a1a1a"></path><path d="M700.3 540L850.3 545.9L760 540Z" fill="#000000" stroke="#000000"></path><path d="M678 540L850.3 545.9L700.3 540Z" fill="#151515" stroke="#151515"></path><path d="M587.7 540L850.3 545.9L678 540Z" fill="#000000" stroke="#000000"></path><path d="M583.3 540L850.3 545.9L587.7 540Z" fill="#0a0a0a" stroke="#0a0a0a"></path><path d="M486 540L850.3 545.9L583.3 540Z" fill="#121212" stroke="#121212"></path><path d="M-8.7 551.9L850.3 545.9L486 540Z" fill="#1d1d1d" stroke="#1d1d1d"></path><path d="M-8.7 551.9L486 540L402.7 540Z" fill="#0e0e0e" stroke="#0e0e0e"></path><path d="M-8.7 551.9L402.7 540L378.3 540Z" fill="#1a1a1a" stroke="#1a1a1a"></path><path d="M-8.7 551.9L378.3 540L335 540Z" fill="#181818" stroke="#181818"></path><path d="M-8.7 551.9L335 540L255.3 540Z" fill="#1a1a1a" stroke="#1a1a1a"></path><path d="M-8.7 551.9L255.3 540L247.7 540Z" fill="#222222" stroke="#222222"></path><path d="M-8.7 551.9L247.7 540L173 540Z" fill="#0a0a0a" stroke="#0a0a0a"></path><path d="M960 330.7L898.7 347.5L960 393.6Z" fill="#1a1a1a" stroke="#1a1a1a"></path><path d="M960 330.7L909.3 276.5L898.7 347.5Z" fill="#222222" stroke="#222222"></path><path d="M960 275.5L960 205.5L906.7 214.5Z" fill="#222222" stroke="#222222"></path><path d="M936.7 171.4L955.7 142.2L902.3 101.2Z" fill="#000000" stroke="#000000"></path><path d="M960 205.5L960 190.4L936.7 171.4Z" fill="#121212" stroke="#121212"></path><path d="M0 71.2L0 104.3L88.3 98.1Z" fill="#0e0e0e" stroke="#0e0e0e"></path><path d="M8.3 155.2L0 104.3L0 227.4Z" fill="#222222" stroke="#222222"></path><path d="M-8.7 258.5L0 386.7L0 280.6Z" fill="#222222" stroke="#222222"></path><path d="M0 280.6L0 386.7L78.3 345.6Z" fill="#1d1d1d" stroke="#1d1d1d"></path><path d="M76.7 457.9L62.3 540L131.7 540Z" fill="#1d1d1d" stroke="#1d1d1d"></path><path d="M960 190.4L955.7 142.2L936.7 171.4Z" fill="#0a0a0a" stroke="#0a0a0a"></path><path d="M960 393.6L898.7 347.5L908.7 401.7Z" fill="#0e0e0e" stroke="#0e0e0e"></path><path d="M927.7 0L905.3 0L897.7 82.1Z" fill="#151515" stroke="#151515"></path><path d="M897.7 82.1L905.3 0L811.3 42.1Z" fill="#1a1a1a" stroke="#1a1a1a"></path><path d="M793 0L905.3 0L207.7 -9.9Z" fill="#222222" stroke="#222222"></path><path d="M960 190.4L960 129.3L955.7 142.2Z" fill="#1d1d1d" stroke="#1d1d1d"></path><path d="M955.7 142.2L960 129.3L902.3 101.2Z" fill="#000000" stroke="#000000"></path><path d="M66.3 0L0 71.2L88.3 98.1Z" fill="#151515" stroke="#151515"></path><path d="M0 104.3L0 71.2L-8.7 258.5Z" fill="#050505" stroke="#050505"></path><path d="M0 518.9L62.3 540L76.7 457.9Z" fill="#1d1d1d" stroke="#1d1d1d"></path><path d="M131.7 540L-8.7 551.9L173 540Z" fill="#1d1d1d" stroke="#1d1d1d"></path><path d="M960 471.8L908.7 401.7L845 483.8Z" fill="#1d1d1d" stroke="#1d1d1d"></path><path d="M0 386.7L0 442.8L57.7 401.8Z" fill="#222222" stroke="#222222"></path><path d="M-5.7 440.8L0 442.8L0 386.7Z" fill="#050505" stroke="#050505"></path><path d="M960 35.1L927.7 0L897.7 82.1Z" fill="#1f1f1f" stroke="#1f1f1f"></path><path d="M905.3 0L927.7 0L207.7 -9.9Z" fill="#1f1f1f" stroke="#1f1f1f"></path><path d="M-8.7 258.5L-5.7 440.8L0 386.7Z" fill="#0a0a0a" stroke="#0a0a0a"></path><path d="M0 442.8L0 518.9L76.7 457.9Z" fill="#1d1d1d" stroke="#1d1d1d"></path><path d="M960 129.3L960 71.2L902.3 101.2Z" fill="#181818" stroke="#181818"></path><path d="M66.3 0L0 23.1L0 71.2Z" fill="#050505" stroke="#050505"></path><path d="M0 71.2L0 23.1L-8.7 258.5Z" fill="#1a1a1a" stroke="#1a1a1a"></path><path d="M207.7 -9.9L0 0L66.3 0Z" fill="#0a0a0a" stroke="#0a0a0a"></path><path d="M66.3 0L0 0L0 23.1Z" fill="#1f1f1f" stroke="#1f1f1f"></path><path d="M0 23.1L0 0L-8.7 258.5Z" fill="#121212" stroke="#121212"></path><path d="M960 71.2L960 35.1L897.7 82.1Z" fill="#181818" stroke="#181818"></path><path d="M850.3 545.9L915.3 540L845 483.8Z" fill="#222222" stroke="#222222"></path><path d="M915.3 540L960 471.8L845 483.8Z" fill="#1f1f1f" stroke="#1f1f1f"></path><path d="M960 35.1L960 0L927.7 0Z" fill="#0e0e0e" stroke="#0e0e0e"></path><path d="M927.7 0L960 0L207.7 -9.9Z" fill="#050505" stroke="#050505"></path><path d="M-5.7 440.8L0 518.9L0 442.8Z" fill="#151515" stroke="#151515"></path><path d="M850.3 545.9L940.7 540L915.3 540Z" fill="#0e0e0e" stroke="#0e0e0e"></path><path d="M915.3 540L940.7 540L960 471.8Z" fill="#000000" stroke="#000000"></path><path d="M-8.7 551.9L0 540L0 518.9Z" fill="#1d1d1d" stroke="#1d1d1d"></path><path d="M0 518.9L0 540L62.3 540Z" fill="#1a1a1a" stroke="#1a1a1a"></path><path d="M62.3 540L-8.7 551.9L131.7 540Z" fill="#1a1a1a" stroke="#1a1a1a"></path><path d="M960 540L960 538.9L940.7 540Z" fill="#1a1a1a" stroke="#1a1a1a"></path><path d="M940.7 540L960 538.9L960 471.8Z" fill="#1a1a1a" stroke="#1a1a1a"></path><path d="M-8.7 258.5L-8.7 551.9L-5.7 440.8Z" fill="#0a0a0a" stroke="#0a0a0a"></path><path d="M-5.7 440.8L-8.7 551.9L0 518.9Z" fill="#181818" stroke="#181818"></path><path d="M0 540L-8.7 551.9L62.3 540Z" fill="#1f1f1f" stroke="#1f1f1f"></path><path d="M850.3 545.9L960 540L940.7 540Z" fill="#1d1d1d" stroke="#1d1d1d"></path></g></svg>